<svg width="592" height="388" viewBox="0 0 592 388" fill="none" xmlns="http://www.w3.org/2000/svg">
<path d="M284.866 58.0094L285.664 41.6731L244.21 27.7686L200.46 12.0677L143.691 6.49009L111.198 0.785889L85.4005 13.8759L29.7524 164.203L23.9947 190.183L21.5581 254.921L0 388H100.715L95.4072 264.395L96.7367 205.824L105.55 175.067L118.264 158.186L138.294 153.856L189.506 107.4L217.093 92.6502L247.72 84.5286L278.023 82.6344L282.484 69.4847C282.484 69.4847 232.463 60.3336 222.045 64.0743C208.733 68.8564 190.389 67.6239 177.156 68.4313C166.602 63.1475 157.968 59.0747 147.414 53.791L162.226 41.021L202.944 41.8642L284.871 58.0118L284.866 58.0094Z" fill="#D16285"/>
<path d="M592 388L570.222 260.322L568.754 190.883L537.696 146.014L473.743 39.0647L425.266 31.569L281.088 0L285.112 12.5645L401.508 62.8895L424.284 80.5562L402.658 111.49L390.007 114.762L332.75 110.186L300.85 114.282L295.329 134.271L345.377 140.945L381.265 145.801L473.284 191.2L482.925 219.294L486.225 270.761L491.239 388H592Z" fill="#D16285"/>
</svg>
