<svg width="77" height="55" viewBox="0 0 77 55" fill="none" xmlns="http://www.w3.org/2000/svg">
<path d="M74.278 4.70318C74.1956 4.23822 74.0966 3.75666 73.8492 3.34152C73.5193 2.81015 72.9914 2.47803 72.447 2.19574C68.5871 0.169863 64.0673 0.020413 59.729 0.00380749C44.5202 -0.0626147 29.3114 0.751057 14.119 1.58133L5.68984 2.12932C3.92482 2.12932 2.35775 3.39134 1.49999 4.93566C0.64222 6.47997 0.378293 8.27337 0.229833 10.0502C-0.627932 19.781 1.0711 29.5451 2.75364 39.1763C3.33098 42.4642 3.92482 45.8019 5.49189 48.7411C6.13521 49.9533 6.97648 51.0991 8.08168 51.8962C9.64875 53.0087 11.6117 53.3242 13.5087 53.5733C27.2824 55.3999 41.2376 55.0678 55.1103 54.7523C58.195 54.6859 61.2961 54.6029 64.3808 54.387C66.8221 54.2209 69.3459 53.922 71.4408 52.6434C73.7007 51.2651 75.1853 48.8573 75.9606 46.3167C76.7359 43.776 76.8843 41.0859 76.9503 38.4291C77.2307 27.1373 76.3235 15.8123 74.245 4.70318H74.278ZM53.6422 26.9214L32.1156 37.9973C31.9506 38.0803 31.7857 37.8977 31.7857 37.632V15.8289C31.7857 15.5632 31.9506 15.3805 32.1156 15.4636L53.6422 26.0413C54.0051 26.224 54.0216 26.7387 53.6422 26.938V26.9214Z" fill="#EDE549"/>
</svg>
