<svg width="91" height="50" viewBox="0 0 91 50" fill="none" xmlns="http://www.w3.org/2000/svg">
<path d="M0.513976 6.31064C4.60692 16.8797 10.484 26.7817 17.8478 35.5038C21.1711 39.4372 24.8618 43.1997 29.462 45.6282C33.7998 47.9369 38.7148 48.946 43.5949 49.6984C45.379 49.9721 47.2505 50.2115 48.9822 49.6984C51.2036 49.0486 52.9177 47.2015 53.9322 45.1493C54.9467 43.0971 55.349 40.8225 55.7513 38.5821C58.235 38.3256 60.1241 40.5489 61.7683 42.3788C63.4824 44.2771 65.4939 46.0044 67.9077 46.9792C70.5838 48.0567 73.5573 48.1422 76.4609 48.1935C80.7287 48.279 85.0141 48.3645 89.282 48.4671C89.8067 48.4671 90.4014 48.4671 90.7512 48.0909C91.3109 47.4923 90.8212 46.5346 90.3139 45.8676C86.8507 41.3014 83.3874 36.7351 79.9241 32.1518C79.0671 31.0059 78.175 29.8259 77.9127 28.4235C77.4579 26.0635 78.8922 23.7889 80.239 21.7538C84.4544 15.3576 88.3899 8.4826 89.212 0.923509C84.4719 0.666978 79.6968 1.02612 75.0616 1.98383C74.4319 2.12065 73.7847 2.27457 73.3125 2.70212C72.9801 3.00995 72.7702 3.4375 72.5778 3.84795C70.2515 8.80754 67.9426 13.7671 65.6163 18.7267C65.0916 19.8383 64.5668 20.9671 63.7098 21.8735C62.9577 22.6773 61.9956 23.2587 61.0511 23.8231C60.0541 24.4217 59.0571 25.0031 58.0601 25.6017C57.343 26.0293 56.4859 26.4739 55.6813 26.2003C54.7368 25.8582 54.4394 24.6953 54.317 23.7205C53.6523 18.5386 53.4424 13.2883 53.7223 8.07215C53.8097 6.24223 53.8972 4.20709 52.6378 2.85604C51.8332 1.98383 50.6263 1.60759 49.4544 1.29975C46.1136 0.444652 42.7028 0 39.292 0C37.1581 0 34.4819 0.59857 34.0971 2.63371C33.9397 3.48881 34.2546 4.34391 34.5344 5.16481C36.5459 11.2189 36.1786 18.0084 33.5374 23.8231C26.8733 18.2821 21.8183 10.894 19.1246 2.75342C15.1716 2.39428 11.2011 2.29167 7.2481 2.44559C5.30657 2.514 3.31257 2.5482 1.38854 2.83893C-0.535497 3.12967 -0.0807252 4.75436 0.513976 6.31064Z" fill="#EDE549"/>
</svg>
