<svg width="54" height="55" viewBox="0 0 54 55" fill="none" xmlns="http://www.w3.org/2000/svg">
<g clip-path="url(#clip0_181_127)">
<path d="M3.41789 3.31601C2.37193 4.59508 1.76308 6.17418 1.32596 7.76907C0.607832 10.4062 0.358049 13.1538 0.201934 15.9014C-0.282021 24.4443 0.0926542 33.0346 1.35718 41.4986C1.6538 43.4567 1.99725 45.4464 2.90271 47.1992C4.49508 50.2784 7.6486 52.2681 10.927 53.2471C13.8463 54.1314 16.9374 54.3209 19.9816 54.4946C26.7882 54.9052 33.6417 55.3157 40.4326 54.6051C43.7423 54.2577 47.2861 53.5156 49.4873 51.0048C50.424 49.931 51.064 48.6203 51.5636 47.2781C53.3901 42.3829 53.6712 37.0456 53.8429 31.8187C53.9678 27.5868 54.0458 23.3548 53.9834 19.1228C53.9366 16.1067 53.8273 13.0591 52.9686 10.1693C52.11 7.27955 50.424 4.54771 47.8637 3.00019C45.8342 1.78429 43.43 1.4053 41.0883 1.10527C34.2817 0.252561 27.4439 -0.110632 20.5905 0.0314871C17.2496 0.0946511 13.9244 0.505217 10.5992 0.568381C7.80471 0.615754 5.32249 0.994737 3.41789 3.3318V3.31601Z" fill="#EDE549"/>
<path d="M43.4764 14.0484C45.1317 14.0484 46.4586 12.698 46.4586 11.0376C46.4586 9.37728 45.1317 8.02686 43.4764 8.02686C41.821 8.02686 40.4941 9.37728 40.4941 11.0376C40.4941 12.698 41.821 14.0484 43.4764 14.0484Z" fill="#FFFBE1" stroke="#FFFBE1"/>
<path d="M11.1992 27.4999C11.1992 36.4658 18.2683 43.7786 26.9992 43.7786C35.7301 43.7786 42.7992 36.4658 42.7992 27.4999C42.7992 18.5339 35.7301 11.2212 26.9992 11.2212C18.2683 11.2212 11.1992 18.5339 11.1992 27.4999ZM14.6936 27.4849C14.6936 20.4628 20.2271 14.7787 26.9992 14.7787C33.7713 14.7787 39.3048 20.4628 39.3048 27.4849C39.3048 34.507 33.7713 40.1912 26.9992 40.1912C20.2271 40.1912 14.6936 34.507 14.6936 27.4849Z" fill="#FFFBE1" stroke="#FFFBE1"/>
</g>
<defs>
<clipPath id="clip0_181_127">
<rect width="54" height="55" fill="white"/>
</clipPath>
</defs>
</svg>
