<svg width="75" height="88" viewBox="0 0 75 88" fill="none" xmlns="http://www.w3.org/2000/svg">
<path d="M11.2625 6.3425C11.23 6.77075 11.2658 7.2128 11.2658 7.64258C11.2658 9.07466 11.3665 10.4899 11.3665 11.9204V16.1399C11.3665 16.6602 11.3681 17.1806 11.3681 17.6994C11.3698 18.3947 11.152 19.1407 11.0155 19.8237C10.8628 20.5927 10.7718 21.3709 10.6402 22.1461C10.4565 23.2251 10.4062 24.298 10.1608 25.3679C9.96581 26.2213 9.93006 27.1023 9.73832 27.9573C9.6262 28.4531 9.52545 28.9396 9.4572 29.4415C9.43283 29.6181 9.48483 29.8038 9.46695 29.9803C9.4442 30.2197 9.36133 30.4177 9.36133 30.6649C9.36296 30.9458 9.28496 31.1791 9.25734 31.4523C9.23134 31.6963 9.26221 31.9603 9.26221 32.2075V35.1223C9.26221 35.3525 9.20859 35.6503 9.25571 35.8744C9.34833 36.3165 10.2729 36.1783 10.6353 36.1645C11.2446 36.1384 11.8475 35.9696 12.4601 35.9696C12.8582 35.9696 13.2319 35.8851 13.6268 35.8713C14.0477 35.856 14.4767 35.8744 14.8991 35.8744C15.9586 35.8744 17.0327 35.9266 18.0889 35.8683C18.6121 35.8391 19.124 35.727 19.6456 35.6933C20.0096 35.6687 20.3784 35.6856 20.7424 35.6856H25.1834C27.7378 35.6856 30.2939 35.6933 32.8483 35.6856C34.7023 35.6795 36.506 35.9327 38.3389 36.163C39.816 36.3487 41.3028 36.4224 42.7815 36.5866C43.9596 36.7155 45.1865 36.6326 46.3743 36.6326H57.562C58.5061 36.6326 59.499 36.7232 60.4333 36.6142C61.0557 36.539 61.7235 36.3825 62.3524 36.4423C62.9487 36.4991 63.017 37.1284 63.1535 37.5782C63.2721 37.9711 63.3875 38.4116 63.4524 38.8168C63.4947 39.0931 63.4947 39.3709 63.5727 39.6457C63.6897 40.0617 63.6751 40.4469 63.6702 40.8828C63.6621 41.6825 63.8749 42.4592 63.8733 43.2589C63.8717 43.6334 63.8343 44.0264 63.8684 44.3978C63.8879 44.6066 63.9676 44.7862 63.9773 45.0041C63.9903 45.3602 63.9302 45.7271 63.9952 46.0816C64.0634 46.45 64.0277 46.8368 64.1236 47.1944C64.169 47.3633 64.1512 47.4922 64.169 47.6595C64.1885 47.8299 64.299 47.9404 64.3527 48.1016C64.4502 48.3978 64.2925 48.5544 64.6809 48.5636C64.9246 48.5697 65.1359 48.5528 65.3731 48.5114C65.9094 48.4162 66.4472 48.4086 66.9786 48.275C67.9405 48.0325 69.0829 48.1799 70.0757 48.1799C71.0978 48.1799 72.1199 48.1722 73.142 48.1799C73.6067 48.1814 73.8781 48.3334 73.9772 47.836C74.0438 47.503 74.0844 47.2589 74.0178 46.9304C73.9512 46.602 73.9935 46.2443 73.9935 45.9097V44.5774C73.9935 41.5812 73.9853 38.5835 73.9935 35.5858C73.9967 34.3886 73.8716 33.2221 73.792 32.0294C73.7318 31.1131 73.5515 30.2428 73.3922 29.3372C73.2119 28.3072 73.1257 27.2727 72.8966 26.2504C72.6903 25.3372 72.5976 24.4147 72.4953 23.486C72.3165 21.859 72.0971 20.2566 72.0126 18.6219C71.9802 18.0079 71.9054 17.3817 71.8859 16.7692C71.8762 16.4223 71.7998 16.0877 71.7868 15.7439C71.7575 15.0378 71.6828 14.3394 71.6844 13.6303C71.6893 12.0248 71.6893 10.4193 71.6893 8.81373C71.6893 8.25348 71.7315 7.66714 71.673 7.10689C71.5918 6.30873 71.4179 5.51671 71.3334 4.71702C71.2847 4.25347 71.3237 3.79146 71.2798 3.32945C71.2424 2.9534 71.1856 2.61111 71.1872 2.23045C71.1904 1.83597 71.1823 1.4415 71.1872 1.04856C71.1888 0.919624 71.2116 0.784551 71.2018 0.658687C71.1872 0.460682 71.1807 0.448403 71.0166 0.344028C70.7696 0.185931 70.0871 0.192071 69.7832 0.187466C69.5005 0.182862 69.2145 0.190536 68.9301 0.190536H67.1362C66.3416 0.190536 65.547 0.190536 64.7524 0.193606C63.7368 0.196676 62.7293 0.0892311 61.7154 0.0923012C54.3528 0.121465 46.9869 0.0969059 39.6243 0.0969059H34.0036C32.4632 0.0969059 30.9227 0.118395 29.3823 0.101511C28.3488 0.0892313 27.3218 -0.00132887 26.2884 0.00174078C24.6569 0.00634564 23.0239 0.0124852 21.3924 0.000205855C20.7961 -0.00439901 20.1997 0.0692773 19.605 0.118395C18.292 0.224304 16.9791 0.284166 15.6661 0.380866C14.7594 0.446868 13.8738 0.51594 12.9801 0.666362C12.4471 0.756922 11.8979 0.835204 11.36 0.852087C10.7377 0.870507 10.7637 1.32791 10.7653 1.8022V2.85516C10.7637 3.30336 10.8709 3.72853 10.8644 4.16905" fill="#EDEE2B"/>
<path d="M2.62452 41.2222C2.62452 41.8837 2.67165 42.5545 2.57415 43.2084C2.5059 43.6719 2.54978 44.1324 2.50265 44.5959C2.4539 45.0718 2.4214 45.523 2.42465 46.0034C2.43765 47.83 1.84618 49.5599 1.72268 51.3695C1.52281 54.3012 1.52281 57.2329 1.52281 60.1769C1.52281 61.388 1.51469 62.599 1.52281 63.8085C1.52769 64.4148 1.42369 65.0042 1.42206 65.6136C1.42206 66.6466 1.42694 67.6581 1.29694 68.6865C1.20432 69.4233 1.12307 70.1186 1.12145 70.8615C1.12145 71.1393 1.13607 71.4202 1.12632 71.698C1.11333 72.0756 0.971955 72.4164 0.928082 72.7863C0.897208 73.058 0.921582 73.3389 0.923207 73.6121C0.928081 73.9728 0.83221 74.3089 0.817586 74.665C0.798086 75.1608 0.731463 75.6735 0.645342 76.1662C0.588468 76.487 0.570594 76.7986 0.492597 77.1194C0.429224 77.3834 0.41785 77.6259 0.419475 77.8976C0.424349 78.5023 0.495847 79.1593 0.373976 79.7548C0.165983 80.771 0.0197385 81.761 0.0197385 82.7971C0.0197385 83.4586 -0.0631333 84.177 0.110735 84.8063C0.204982 85.1486 0.221232 85.54 0.219607 85.8976C0.217982 86.1186 0.219607 86.3397 0.219607 86.5622C0.219607 86.7756 0.12861 87.21 0.278104 87.3957C0.560845 87.7487 1.31319 87.6029 1.71618 87.6029H6.19452C6.56826 87.6029 7.33036 87.7717 7.54323 87.4295C7.6911 87.1915 7.6391 86.8753 7.63585 86.6129C7.6326 86.3182 7.66347 86.1063 7.71384 85.8224C7.77559 85.4632 7.84871 85.1209 7.94784 84.7664C8.08596 84.269 8.00308 83.761 8.08596 83.2514C8.18183 82.6681 8.1542 82.0772 8.26145 81.4908C8.33945 81.0611 8.53119 80.6374 8.53932 80.2015C8.55069 79.6674 8.64006 79.1547 8.63681 78.6175C8.63356 78.0541 8.73756 77.5139 8.73756 76.9505C8.73756 76.7433 8.72131 76.53 8.73106 76.3228C8.74731 76.0419 8.84643 75.7855 8.83993 75.5016C8.82856 74.969 9.33879 74.9122 9.81977 74.8431C10.2276 74.7848 10.668 74.8247 11.0807 74.8247C11.5861 74.8247 12.0102 74.8293 12.4993 74.9551C13.3296 75.167 14.2754 75.2207 15.1301 75.2759C16.0921 75.3404 17.0475 75.3957 18.0046 75.5108C19.2266 75.6581 20.4501 75.8009 21.6786 75.8899C23.1102 75.9927 24.5986 76.0572 26.0156 76.289C27.9883 76.6113 29.9138 77.2084 31.8751 77.5921C33.3262 77.8761 34.7821 78.137 36.2348 78.4179C37.1383 78.5929 38.0499 78.7848 38.9615 78.9244C39.7317 79.0426 40.5214 78.9905 41.2982 78.9858C43.1799 78.9782 45.0648 79.0565 46.9465 79.0841C48.5064 79.1056 50.0599 79.1792 51.6198 79.1792H55.1232C55.4904 79.1792 56.2168 79.3634 56.246 78.8769C56.259 78.6451 56.116 78.3627 56.0299 78.1539C55.9535 77.9651 55.8983 77.784 55.856 77.5783C55.7488 77.0672 55.8333 76.4855 55.8333 75.9621C55.8333 75.3527 55.8105 74.7403 55.8252 74.1309C55.8382 73.5998 55.9682 73.1056 56.0835 72.5868C56.22 71.9728 56.3045 71.3588 56.3614 70.7341C56.4719 69.5 56.6198 68.2767 56.7611 67.0457C56.9025 65.8239 56.8343 64.5775 56.8343 63.3496V59.6305C56.8343 58.754 56.8391 57.8791 56.8359 57.0027C56.8326 56.2659 56.935 55.5445 56.935 54.8047C56.935 54.1017 56.974 53.3864 56.9301 52.685C56.8895 52.0357 56.7514 51.3772 56.6799 50.7279C56.6328 50.3058 56.6328 49.8899 56.6344 49.4678C56.636 49.0825 56.5905 48.7003 56.5093 48.3227C56.3906 47.764 56.3581 47.1884 56.259 46.6205C56.1924 46.2444 56.1144 45.8668 56.0543 45.4908C56.0088 45.2068 56.0478 45.1577 55.726 45.104C55.2743 45.0288 54.6845 45.0902 54.2213 45.0994C53.7095 45.1117 53.2188 45.2038 52.702 45.2007C51.3598 45.193 50.0176 45.1992 48.6754 45.1976C47.7914 45.1976 46.9383 45.1163 46.056 45.0595C42.7752 44.8507 39.4847 44.6711 36.1991 44.5468C35.7311 44.5284 35.2729 44.447 34.8065 44.4378C34.0363 44.4209 33.2661 44.4409 32.4959 44.444C30.9912 44.447 29.4215 44.4808 27.9541 44.16C27.2099 43.9958 26.4397 43.9021 25.6792 43.873C25.156 43.853 24.6734 43.721 24.1615 43.6366C23.0484 43.4509 21.9175 43.4585 20.8028 43.2958C19.831 43.1546 18.8675 43.0564 17.8892 42.9735C17.2263 42.9167 16.6072 42.8308 15.9426 42.8323C13.9455 42.8338 11.9533 42.6942 9.96114 42.5483C8.63844 42.4516 7.31898 42.1186 6.03203 41.8377C5.44055 41.7072 4.82632 41.7256 4.22022 41.7011C3.90498 41.6888 3.61736 41.5952 3.29887 41.5998C3.07463 41.6013 2.85039 41.6013 2.62452 41.6013" fill="#EDEE2B"/>
<path d="M31.6684 55.2742C31.5563 55.3341 31.4052 54.7815 31.4523 54.9918C31.4929 55.5091 31.2752 54.9028 31.2719 54.7877C31.1695 55.1038 31.1045 55.463 31.1565 55.4661C31.2605 55.483 31.3938 56.2673 31.293 56.8583C31.2329 56.6802 30.5456 54.8567 30.5586 54.648C30.3879 54.6556 30.2579 54.5758 30.1361 54.4807C30.0873 54.9166 30.3181 55.3372 30.0158 55.7255C29.855 55.3464 30.0045 54.9273 29.7331 54.582C29.647 54.585 29.2797 51.4031 29.0896 52.7247C29.1042 53.3034 28.4981 54.453 28.4283 54.7324C28.4266 55.7593 28.5209 56.7554 28.633 57.7807C28.5631 58.4269 28.243 62.5851 28.2089 63.5643C28.2544 64.4899 28.243 64.8491 27.1446 64.6019C26.5092 64.407 25.3506 64.892 25.3392 64.0816C25.3084 63.4124 25.1101 62.7017 25.076 62.0509C24.9704 61.8713 24.8404 59.681 24.7185 60.3042C24.6795 60.4009 24.7543 61.8099 24.751 61.9511C24.6714 62.0893 24.3529 60.2382 24.27 60.1184C24.1644 60.0801 24.0718 59.7884 24.0718 59.7884C23.8638 58.9534 24.1449 60.5851 23.9515 60.8322C23.8134 60.5728 23.7923 60.4484 23.6997 60.5344C23.6119 60.209 22.949 58.4776 22.5313 58.5267C22.2665 59.1146 22.5801 58.8721 22.1235 58.4561C20.479 57.7086 21.207 58.8398 21.4573 59.7562C21.506 60.7738 21.5889 61.793 21.6669 62.8107C21.6652 63.3571 21.8667 63.9573 21.8196 64.4684C20.8154 64.4469 19.7299 64.516 18.7647 64.2458C18.495 62.7232 18.3552 61.1867 17.9896 59.6794C17.4095 58.3195 17.3071 56.6741 17.1544 55.1622C16.8603 53.7209 17.2308 58.3563 17.364 58.8721C17.5493 60.7616 16.6653 57.1576 16.7579 56.5175C16.6425 55.6165 16.6539 54.6679 16.5467 53.7884C16.5467 53.4338 16.3679 53.0916 16.1372 52.8199C15.861 51.3985 15.8122 53.4185 15.8577 53.8299C15.6416 54.625 15.6725 55.4707 15.5165 56.2535C15.3052 55.6564 15.2223 51.0823 14.9916 52.0632C14.9884 52.6541 14.6796 51.9173 14.6114 51.8913C13.7566 51.4937 14.5252 53.0563 14.3871 53.4385C14.6374 55.7332 14.3725 58.0709 14.7316 60.341C15.0696 61.3233 15.0972 62.295 15.3312 63.2727C15.4141 63.6687 15.5555 64.1353 15.4677 64.5237C15.9146 65.0532 15.2223 65.0578 14.7592 65.0363C14.3059 65.0839 14.821 65.9987 14.7186 66.3287C14.8665 67.0547 14.8584 67.8376 15.0794 68.5682C15.1915 69.4078 16.0511 69.394 16.6945 68.9841C17.1885 68.803 17.7491 68.7554 18.2626 68.6326C18.9646 68.6388 19.5496 68.4976 20.2272 68.4285C21.3029 68.5498 22.325 68.4285 23.3909 68.5452C24.8696 68.4454 26.376 68.4009 27.8612 68.43C28.6623 68.4147 29.5186 68.4086 30.245 68.0801C30.7129 67.9281 30.4659 67.2159 30.7617 66.9795C31.0623 66.9227 31.5482 67.2696 31.7383 67.0379C31.3808 64.1676 31.618 61.2282 31.8439 58.3302C31.9641 57.4569 31.7025 55.3755 31.6684 55.2742ZM44.9052 54.1952C44.7719 54.1522 44.6241 54.2673 44.5575 54.2489C44.5103 54.1061 44.252 54.628 43.979 55.0332C44.0748 54.5589 44.1642 54.1583 44.1333 54.2335C44.0813 53.9757 44.5753 53.6549 44.2503 53.813C44.1593 53.1514 43.3534 56.0156 43.121 55.8867C43.1649 55.1852 43.524 54.5083 43.524 53.8038C43.4931 53.6886 43.8181 53.5091 43.7726 53.3203C43.5922 53.2972 43.1925 53.1453 43.1633 53.3924C42.679 54.4315 41.9072 55.4185 41.7593 56.6173C41.6716 57.3356 40.4106 58.3026 40.2107 58.4116C40.1392 58.4791 39.5851 58.6587 38.9481 58.6157C38.8344 58.6081 38.4005 58.539 38.0431 58.2243C37.8643 58.0662 37.8237 57.8698 37.7619 57.7439C37.5929 57.3924 37.4694 56.9611 37.3313 56.1783C37.1997 55.4339 37.5312 54.3348 37.6189 52.9918C37.4516 52.648 36.8845 52.7232 36.5514 52.6787C36.2637 52.6664 35.4691 52.2949 35.539 52.186C35.2677 51.8375 35.1523 52.1998 35.0922 52.4269C34.8175 52.054 35.3716 51.8559 34.3089 51.6564C34.5494 51.9373 33.9709 54.9427 33.9839 55.3924C34.2358 57.0731 34.6599 58.6434 36.0931 59.8207C36.6147 60.189 39.5803 60.7155 40.3245 60.6342C40.7031 61.7685 40.8558 62.7646 40.7063 63.9573C40.6023 64.1998 40.5195 64.9534 40.3748 65.2435C40.0092 65.7685 39.7882 66.4362 39.1594 66.7616C39.0456 66.9872 33.6135 66.2151 34.4422 66.7938C34.2163 66.9181 33.8133 66.6526 33.8377 66.5129C31.7366 66.3993 36.4051 68.7186 36.917 68.6142C38.3583 68.8092 42.3459 67.9957 43.0576 66.3993C43.3712 66.2842 43.9075 64.5313 43.9432 64.2643C44.1171 63.0148 44.2292 61.6902 44.213 60.3226C44.1236 59.5812 44.5022 58.648 44.5526 57.7807C44.6355 57.2082 44.7297 56.6188 44.8548 56.0954C44.8223 55.816 44.9068 54.3425 44.9052 54.1952ZM25.7146 22.9518C26.9674 23.2634 25.9275 17.5965 26.1078 16.5942C25.986 15.2603 25.7455 13.9772 25.7829 12.6479C25.8641 12.2289 25.6984 11.75 25.8674 11.3586C25.4822 10.8874 25.8771 10.0339 25.6496 9.49058C25.5164 9.06387 26.1436 9.05159 26.4491 9.18359C26.7139 9.19894 27.0406 9.47062 27.2567 9.29411C27.3899 9.25266 27.502 9.49825 27.5459 9.59342C27.5865 9.89733 27.9359 10.0309 28.1 10.2749C28.3795 10.9395 28.2641 11.555 28.8053 12.0554C29.4 12.7615 29.3106 13.7346 29.4195 14.6019C29.6811 16.7093 29.8777 18.8981 30.3636 20.935C30.4692 21.6809 30.5342 22.6356 31.7025 22.3931C32.6401 22.321 32.4159 22.6403 33.2673 22.3225C33.1325 20.8459 33.7093 19.3356 33.4623 17.8927C33.477 17.2158 32.996 16.5712 33.1146 15.8881C33.36 15.6656 35.0337 15.8221 35.24 16.0232C35.2888 16.1276 35.3245 16.298 35.4821 16.2043C35.7779 15.4399 35.8445 16.519 35.8494 16.8229C35.9225 16.9257 36.0151 16.8321 35.9989 16.7247C36.0492 17.0301 36.1597 16.6218 36.2881 16.5696C36.3369 16.6817 36.2556 17.3954 36.3856 17.6287C36.7837 18.2151 36.2865 18.892 36.5237 19.529C36.8698 20.0293 36.5416 20.7016 36.7366 21.2665C37.0957 22.8076 38.2055 22.2135 40.0304 21.9833C39.9914 18.7615 39.6826 15.532 39.6095 12.2949C39.5413 11.3709 39.4259 10.3977 39.2715 9.51974C39.6664 9.41076 40.0417 9.60109 40.5 9.64407C40.6933 9.69626 40.6673 9.89426 40.7827 10.0109C41.0086 10.1675 42.1623 9.52588 42.276 9.7991C42.9358 11.6778 42.7505 13.7131 42.8805 15.6932C42.9943 17.5382 42.7359 19.3264 43.1259 21.1498C43.2981 21.4185 43.55 21.3064 43.5987 21.5305C43.6946 21.7362 43.6621 26.4162 43.108 26.3087C42.8139 25.8774 39.8142 26.4806 39.4763 26.4361C38.6134 26.5574 31.3743 26.7047 29.634 26.9181C29.1595 27.1575 28.5501 27.1805 28.0139 27.199C27.5053 27.4353 27.2274 27.1483 26.9349 26.8091C26.4166 25.5382 25.8804 24.2581 25.7146 22.9518ZM52.3263 26.631C51.6276 27.3816 46.3303 25.5766 45.9192 24.4469C45.7274 24.2228 45.7859 23.8866 45.6933 23.6119C45.6218 23.268 46.2539 23.6057 46.5415 23.6103C46.9965 23.7592 48.2656 23.9664 49.4745 24.0462C50.0514 24.0831 50.7501 24.2811 51.5236 23.9879C51.7592 23.8989 51.9379 23.793 52.0549 23.7162C52.5928 23.3924 52.8739 23.0332 53.0315 22.7937C53.2005 22.5359 53.493 20.7983 53.519 20.0493C53.5223 19.968 53.519 19.9004 53.5141 19.8313C53.4394 18.433 51.4635 17.7178 51.2847 17.6901C50.5909 17.5796 47.5555 16.5052 47.2484 15.7945C46.4603 14.4791 46.0589 12.9779 45.586 11.5458C45.508 10.9856 44.9198 8.22427 46.0963 9.55811C46.1596 9.67016 46.4034 9.54737 46.4229 9.42151C47.0192 9.20969 47.1314 10.7154 47.4775 9.80984C47.5555 9.82979 47.588 9.78528 47.6058 9.71161C47.822 9.49058 47.6952 10.1184 47.9195 10.0831C48.0738 10.0738 48.3874 10.0662 48.5077 9.91728C48.8538 10.9994 49.1008 11.9204 49.2714 12.6234C49.4583 13.3847 49.4843 13.595 49.6809 13.9449C50.3081 15.0669 51.769 15.9679 52.2564 15.5504C52.4157 15.4138 52.5652 14.9687 52.5652 14.8505C52.5652 14.4438 52.5018 12.5635 52.3101 9.99096C52.3702 8.71237 52.5977 8.46525 53.909 9.00094C54.0845 9.27876 54.5054 8.84437 54.6321 9.23731C54.6874 10.0094 54.8011 10.783 54.9148 11.5643C54.9993 12.1414 54.9928 14.6494 55.5551 12.9472C55.5356 13.2465 56.0117 12.9963 55.9873 12.8428C55.8931 12.4131 56.1823 12.0278 56.1612 12.7032C56.2148 13.0777 56.3545 13.3463 56.387 13.7039C56.7445 13.727 56.5333 14.2918 56.6779 14.5052C56.7185 14.4453 56.6747 14.1828 56.6925 14.0892C56.6698 13.8405 56.7624 13.5366 56.6373 13.3294C56.6535 12.7707 56.9086 11.9296 56.9671 13.0301C57.2743 12.6418 57.1313 13.4844 57.141 13.6579C57.4221 16.3824 56.5755 19.265 56.6178 21.9864C56.5528 23.0577 56.1547 24.1859 55.4218 25.0363C55.1163 25.4231 54.0991 26.6172 53.2964 27.0132C52.8625 27.2235 52.726 26.5743 52.3263 26.631Z" fill="#231F20"/>
</svg>
